HIERARCHY
ROOT Character1_Hips
{
  OFFSET 27.5593 46.1112 85.5374
  CHANNELS 6 Xposition Yposition Zposition Zrotation Xrotation Yrotation
  JOINT Character1_Spine
  {
    OFFSET 0 8.754 -1.339
    CHANNELS 3 Zrotation Xrotation Yrotation
    JOINT Character1_Spine1
    {
      OFFSET 0 10.855 -0.645
      CHANNELS 3 Zrotation Xrotation Yrotation
      JOINT Character1_LeftShoulder
      {
        OFFSET 1.467 27.745 1.178
        CHANNELS 3 Zrotation Xrotation Yrotation
        JOINT Character1_LeftArm
        {
          OFFSET 18.486 -1.858 0.275
          CHANNELS 3 Zrotation Xrotation Yrotation
          JOINT Character1_LeftForeArm
          {
            OFFSET 31.798 2.36 2.921
            CHANNELS 3 Zrotation Xrotation Yrotation
            JOINT Character1_LeftHand
            {
              OFFSET 29.001 1.642 2.112
              CHANNELS 3 Zrotation Xrotation Yrotation
              End Site
              {
                OFFSET 7.3734 -1.0302 1.64982
              }
            }
            JOINT ForeArmBoxL
            {
              OFFSET 14.9879 1.12959 0.0233554
              CHANNELS 3 Zrotation Xrotation Yrotation
              End Site
              {
                OFFSET 0 0 0
              }
            }
          }
          JOINT ArmBoxL
          {
            OFFSET 15.8286 1.72374 1.18509
            CHANNELS 3 Zrotation Xrotation Yrotation
            End Site
            {
              OFFSET 0 0 0
            }
          }
        }
        JOINT ShoulderBoxL
        {
          OFFSET 8.34438 1.0846 -0.108247
          CHANNELS 3 Zrotation Xrotation Yrotation
          End Site
          {
            OFFSET 0 0 0
          }
        }
      }
      JOINT Character1_RightShoulder
      {
        OFFSET -1.467 27.745 1.178
        CHANNELS 3 Zrotation Xrotation Yrotation
        JOINT Character1_RightArm
        {
          OFFSET -18.486 -1.858 0.275
          CHANNELS 3 Zrotation Xrotation Yrotation
          JOINT Character1_RightForeArm
          {
            OFFSET -31.798 2.35964 2.92082
            CHANNELS 3 Zrotation Xrotation Yrotation
            JOINT Character1_RightHand
            {
              OFFSET -29.0007 1.64167 2.112
              CHANNELS 3 Zrotation Xrotation Yrotation
              End Site
              {
                OFFSET -7.37366 -1.0295 1.65001
              }
            }
            JOINT ForeArmBoxR
            {
              OFFSET -14.9879 1.12995 0.0235372
              CHANNELS 3 Zrotation Xrotation Yrotation
              End Site
              {
                OFFSET 0 0 0
              }
            }
          }
          JOINT ArmBoxR
          {
            OFFSET -15.8286 1.72374 1.18509
            CHANNELS 3 Zrotation Xrotation Yrotation
            End Site
            {
              OFFSET 0 0 0
            }
          }
        }
        JOINT ShoulderBoxR
        {
          OFFSET -8.34438 1.0846 -0.108247
          CHANNELS 3 Zrotation Xrotation Yrotation
          End Site
          {
            OFFSET 0 0 0
          }
        }
      }
      JOINT Character1_Neck
      {
        OFFSET 0 30.836 0.626
        CHANNELS 3 Zrotation Xrotation Yrotation
        JOINT Character1_Head
        {
          OFFSET 0 8.074 3.498
          CHANNELS 3 Zrotation Xrotation Yrotation
          End Site
          {
            OFFSET 0 8.75051 -0.3664
          }
        }
        JOINT NeckBox
        {
          OFFSET 0 4.52749 1.86245
          CHANNELS 3 Zrotation Xrotation Yrotation
          End Site
          {
            OFFSET 0 0 0
          }
        }
      }
      JOINT TorsoBox
      {
        OFFSET 0 12.7155 1.00402
        CHANNELS 3 Zrotation Xrotation Yrotation
        End Site
        {
          OFFSET 0 0 0
        }
      }
    }
    JOINT SpineBox
    {
      OFFSET 0 5.28258 0.326123
      CHANNELS 3 Zrotation Xrotation Yrotation
      End Site
      {
        OFFSET 0 0 0
      }
    }
  }
  JOINT Character1_RightUpLeg
  {
    OFFSET -9.035 -4.63425 1.845
    CHANNELS 3 Zrotation Xrotation Yrotation
    JOINT Character1_RightLeg
    {
      OFFSET -0.919521 -40.345 1.155
      CHANNELS 3 Zrotation Xrotation Yrotation
      JOINT Character1_RightFoot
      {
        OFFSET 1.95452 -45.2655 -4.18888
        CHANNELS 3 Zrotation Xrotation Yrotation
        JOINT Character1_RightToeBase
        {
          OFFSET 1.87056 -6.69517 14.7145
          CHANNELS 3 Zrotation Xrotation Yrotation
          End Site
          {
            OFFSET 0 0 0
          }
        }
        JOINT TalusBoxR
        {
          OFFSET -0.257548 -3.72327 1.77314
          CHANNELS 3 Zrotation Xrotation Yrotation
          End Site
          {
            OFFSET 0 0 0
          }
        }
        JOINT FootPinkyBoxR
        {
          OFFSET -4.44001 -5.06132 12.2866
          CHANNELS 3 Zrotation Xrotation Yrotation
          End Site
          {
            OFFSET 0 0 0
          }
        }
        JOINT FootThumbBoxR
        {
          OFFSET 0.350101 -5.07916 13.5666
          CHANNELS 3 Zrotation Xrotation Yrotation
          End Site
          {
            OFFSET 0 0 0
          }
        }
      }
      JOINT TibiaBoxR
      {
        OFFSET 0.679521 -22.8458 -3.405
        CHANNELS 3 Zrotation Xrotation Yrotation
        End Site
        {
          OFFSET 0 0 0
        }
      }
    }
    JOINT FemurBoxR
    {
      OFFSET -0.557975 -20.9557 -1.11465
      CHANNELS 3 Zrotation Xrotation Yrotation
      End Site
      {
        OFFSET 0 0 0
      }
    }
  }
  JOINT Character1_LeftUpLeg
  {
    OFFSET 9.035 -4.63425 1.845
    CHANNELS 3 Zrotation Xrotation Yrotation
    JOINT Character1_LeftLeg
    {
      OFFSET 0.919521 -40.345 1.155
      CHANNELS 3 Zrotation Xrotation Yrotation
      JOINT Character1_LeftFoot
      {
        OFFSET -1.95452 -45.2655 -4.18888
        CHANNELS 3 Zrotation Xrotation Yrotation
        JOINT Character1_LeftToeBase
        {
          OFFSET -1.87056 -6.69517 14.7145
          CHANNELS 3 Zrotation Xrotation Yrotation
          End Site
          {
            OFFSET 0 0 0
          }
        }
        JOINT FootThumbBoxL
        {
          OFFSET -0.350101 -5.07916 13.5666
          CHANNELS 3 Zrotation Xrotation Yrotation
          End Site
          {
            OFFSET 0 0 0
          }
        }
        JOINT FootPinkyBoxL
        {
          OFFSET 4.44001 -5.06132 12.2866
          CHANNELS 3 Zrotation Xrotation Yrotation
          End Site
          {
            OFFSET 0 0 0
          }
        }
        JOINT TalusBoxL
        {
          OFFSET 0.257548 -3.72327 1.77314
          CHANNELS 3 Zrotation Xrotation Yrotation
          End Site
          {
            OFFSET 0 0 0
          }
        }
      }
      JOINT TibiaBoxL
      {
        OFFSET -0.679521 -22.8458 -3.405
        CHANNELS 3 Zrotation Xrotation Yrotation
        End Site
        {
          OFFSET 0 0 0
        }
      }
    }
    JOINT FemurBoxL
    {
      OFFSET 0.557975 -20.9557 -1.11465
      CHANNELS 3 Zrotation Xrotation Yrotation
      End Site
      {
        OFFSET 0 0 0
      }
    }
  }
  JOINT PelvisBox
  {
    OFFSET 0 0.0930822 -0.0838296
    CHANNELS 3 Zrotation Xrotation Yrotation
    End Site
    {
      OFFSET 0 0 0
    }
  }
}
MOTION
Frames:	7
Frame Time:	0.00833333
27.5525 46.2223 85.5806 -10.3108 -39.6226 -10.5924 -7.95139e-16 0 7.95139e-16 0.812604 34.1687 -9.49747 8.62283e-07 -2.75072e-08 -4.07794e-07 -66.1596 12.6003 37.3612 -63.0215 18.1654 -102.544 4.12998 3.7919 -17.5458 -13.2576 -68.9783 -17.331 -6.92027 -72.5829 -11.2678 0.27423 -0.0473218 3.14463 8.62283e-07 -2.75072e-08 -4.07794e-07 86.7763 11.4028 -47.4687 53.3102 15.5747 117.802 -0.798786 7.16169 0.381621 -166.742 68.9783 162.669 -173.08 72.5829 168.732 179.726 0.0473218 -176.855 -1.98785e-16 7.95139e-16 -3.18055e-15 1.98785e-16 0 -0 1.25172 18.9224 -1.81509 7.33603e-16 0.528321 -2.83015e-15 -0.253847 30.0319 -7.14528 -20.7095 -33.9727 -17.9785 101.506 86.276 -95.0764 1.15051 -21.9039 11.7103 0.436556 3.35446 0.0729631 -178.531 -1.41374 -167.997 -179.276 -0.600381 -160.082 179.447 -1.12556 -169.995 -178 -5 180 179.002 0.985149 179.879 9.71526 -37.4074 33.4253 90.7196 71.1154 -70.5011 -11.1157 -8.6216 -5.65801 17.6739 28.565 -2.6967 0.553385 1.12556 10.0051 -0.724387 0.600381 19.9179 -1.46875 1.41374 12.0028 -2 5 -3.1661e-15 0.99792 -0.985149 -0.120973 -6.10909e-16 0 -1.22182e-15 
27.555 46.2166 85.5788 -10.2884 -39.5729 -10.5609 1.59028e-15 -3.18055e-15 -0 0.847593 34.1823 -9.55395 8.62283e-07 -2.75072e-08 -4.07794e-07 -66.1578 12.5535 37.3833 -63.0891 18.1646 -102.521 4.12833 3.79242 -17.5376 -13.2576 -68.9783 -17.331 -6.92027 -72.5829 -11.2678 0.27423 -0.0473218 3.14463 8.62283e-07 -2.75072e-08 -4.07794e-07 86.8167 11.4216 -47.4986 53.354 15.6181 117.847 -0.79916 7.20553 0.372576 -166.742 68.9783 162.669 -173.08 72.5829 168.732 179.726 0.0473218 -176.855 1.98785e-16 -1.59028e-15 -6.36111e-15 -1.32417e-31 -2.38542e-15 -3.18055e-15 1.2252 18.9245 -1.80204 4.05946e-16 0.528321 -5.6603e-15 -0.250953 30.0374 -7.17589 -20.7458 -34.022 -18.0311 101.715 86.2741 -95.2856 1.1509 -21.9072 11.7097 0.437521 3.34488 0.0726799 -178.531 -1.41374 -167.997 -179.276 -0.600381 -160.082 179.447 -1.12556 -169.995 -178 -5 -180 179.002 0.985149 179.879 9.69271 -37.4773 33.3904 90.7611 71.1155 -70.5412 -11.1088 -8.61261 -5.64964 17.6678 28.5552 -2.69239 0.553385 1.12556 10.0051 -0.724387 0.600381 19.9179 -1.46875 1.41374 12.0028 -2 5 -3.1661e-15 0.99792 -0.985149 -0.120973 -6.10909e-16 -3.50074e-15 -1.22182e-15 
27.5572 46.2107 85.5769 -10.268 -39.5185 -10.5312 1.59028e-15 3.18055e-15 2.38542e-15 0.893157 34.1934 -9.62274 8.62283e-07 -2.75072e-08 -4.07794e-07 -66.1608 12.4994 37.4366 -63.1626 18.2324 -102.527 4.12676 3.7929 -17.5313 -13.2576 -68.9783 -17.331 -6.92027 -72.5829 -11.2678 0.27423 -0.0473218 3.14463 8.62283e-07 -2.75072e-08 -4.07794e-07 86.8567 11.4494 -47.5264 53.4034 15.6644 117.896 -0.799572 7.25434 0.36215 -166.742 68.9783 162.669 -173.08 72.5829 168.732 179.726 0.0473218 -176.855 -1.98785e-16 -7.95139e-16 -6.36111e-15 3.97569e-16 -7.95139e-16 -6.36111e-15 1.19435 18.9128 -1.78337 7.07507e-16 0.528321 -0 -0.243543 30.0463 -7.21415 -20.7773 -34.0781 -18.0842 101.926 86.2721 -95.4959 1.15082 -21.9087 11.7087 0.438362 3.33278 0.0723711 -178.531 -1.41374 -167.997 -179.276 -0.600381 -160.082 179.447 -1.12556 -169.995 -178 -5 180 179.002 0.985149 179.879 9.67163 -37.5522 33.354 90.8046 71.1158 -70.5829 -11.1018 -8.60603 -5.6382 17.6503 28.531 -2.68559 0.553385 1.12556 10.0051 -0.724387 0.600381 19.9179 -1.46875 1.41374 12.0028 -2 5 3.1661e-15 0.99792 -0.985149 -0.120973 -0 0 2.44364e-15 
27.5591 46.2044 85.5747 -10.2504 -39.4586 -10.502 -5.29669e-31 -9.54166e-15 -3.18055e-15 0.951201 34.2 -9.70505 8.62283e-07 -2.75072e-08 -4.07794e-07 -66.1695 12.4345 37.4807 -63.2475 18.2605 -102.51 4.12508 3.79341 -17.5242 -13.2576 -68.9783 -17.331 -6.92027 -72.5829 -11.2678 0.27423 -0.0473218 3.14463 8.62283e-07 -2.75072e-08 -4.07794e-07 86.8994 11.486 -47.556 53.4582 15.7176 117.952 -0.800222 7.31003 0.35199 -166.742 68.9783 162.669 -173.08 72.5829 168.732 179.726 0.0473218 -176.855 1.98785e-16 0 -0 0 0 -0 1.15859 18.9046 -1.76627 0 0.528321 -0 -0.228279 30.059 -7.26185 -20.8047 -34.1383 -18.1372 102.125 86.2702 -95.6948 1.15067 -21.9096 11.7078 0.439023 3.32582 0.0720369 -178.531 -1.41374 -167.997 -179.276 -0.600381 -160.082 179.447 -1.12556 -169.995 -178 -5 -180 179.002 0.985149 179.879 9.64975 -37.6376 33.312 90.8516 71.1162 -70.6281 -11.0958 -8.60027 -5.62422 17.6231 28.4956 -2.67541 0.553385 1.12556 10.0051 -0.724387 0.600381 19.9179 -1.46875 1.41374 12.0028 -2 5 6.33219e-15 0.99792 -0.985149 -0.120973 1.22182e-15 -7.00148e-15 -2.44364e-15 
27.5604 46.198 85.5724 -10.2352 -39.3941 -10.4756 1.59028e-15 -9.54166e-15 -1.59028e-15 1.01853 34.2067 -9.79823 8.62283e-07 -2.75072e-08 -4.07794e-07 -66.1882 12.3596 37.568 -63.3319 18.3778 -102.531 4.12331 3.79394 -17.5168 -13.2576 -68.9783 -17.331 -6.92027 -72.5829 -11.2678 0.27423 -0.0473218 3.14463 8.62283e-07 -2.75072e-08 -4.07794e-07 86.9433 11.5324 -47.5833 53.5177 15.7753 118.013 -0.800949 7.37092 0.341043 -166.742 68.9783 162.669 -173.08 72.5829 168.732 179.726 0.0473218 -176.855 -0 -1.59028e-15 -0 -1.98785e-16 0 -3.18055e-15 1.11581 18.8936 -1.74773 3.53753e-16 0.528321 -0 -0.205999 30.0759 -7.31782 -20.8285 -34.204 -18.1876 102.336 86.2681 -95.9064 1.15031 -21.9095 11.7066 0.439455 3.32831 0.071677 -178.531 -1.41374 -167.997 -179.276 -0.600381 -160.082 179.447 -1.12556 -169.995 -178 -5 -180 179.002 0.985149 179.879 9.63007 -37.7286 33.2683 90.8962 71.1167 -70.6709 -11.0904 -8.59531 -5.61005 17.5992 28.4638 -2.66636 0.553385 1.12556 10.0051 -0.724387 0.600381 19.9179 -1.46875 1.41374 12.0028 -2 5 3.1661e-15 0.99792 -0.985149 -0.120973 6.10909e-16 -1.05022e-14 -1.22182e-15 
27.5611 46.1908 85.5696 -10.2189 -39.3224 -10.4529 -2.38542e-15 3.18055e-15 -1.59028e-15 1.09211 34.2079 -9.90093 8.62283e-07 -2.75072e-08 -4.07794e-07 -66.207 12.2747 37.6368 -63.4344 18.4461 -102.526 4.12129 3.79454 -17.5066 -13.2576 -68.9783 -17.331 -6.92027 -72.5829 -11.2678 0.27423 -0.0473218 3.14463 8.62283e-07 -2.75072e-08 -4.07794e-07 86.9907 11.5899 -47.6125 53.5825 15.8388 118.08 -0.801954 7.43842 0.330965 -166.742 68.9783 162.669 -173.08 72.5829 168.732 179.726 0.0473218 -176.855 3.97569e-16 1.59028e-15 -0 3.97569e-16 7.95139e-16 3.18055e-15 1.06618 18.8746 -1.72071 0 0.528321 -0 -0.181896 30.0906 -7.37955 -20.8494 -34.2806 -18.2318 102.564 86.2659 -96.1342 1.14957 -21.9084 11.7049 0.439606 3.3464 0.0712912 -178.531 -1.41374 -167.997 -179.276 -0.600381 -160.082 179.447 -1.12556 -169.995 -178 -5 -180 179.002 0.985149 179.879 9.60935 -37.8297 33.2235 90.9456 71.1175 -70.7185 -11.0845 -8.59166 -5.59288 17.5721 28.4268 -2.65585 0.553385 1.12556 10.0051 -0.724387 0.600381 19.9179 -1.46875 1.41374 12.0028 -2 5 -0 0.99792 -0.985149 -0.120973 -6.10909e-16 3.50074e-15 -0 
27.5615 46.183 85.5664 -10.2013 -39.2436 -10.4302 -1.76556e-31 -6.36111e-15 -1.59028e-15 1.16992 34.2008 -10.0085 8.62283e-07 -2.75072e-08 -4.07794e-07 -66.2269 12.1875 37.7037 -63.5488 18.499 -102.51 4.11919 3.79514 -17.4963 -13.2576 -68.9783 -17.331 -6.92027 -72.5829 -11.2678 0.27423 -0.0473218 3.14463 8.62283e-07 -2.75072e-08 -4.07794e-07 87.0453 11.6539 -47.6479 53.655 15.9076 118.153 -0.805421 7.51434 0.323579 -166.742 68.9783 162.669 -173.08 72.5829 168.732 179.726 0.0473218 -176.855 1.98785e-16 0 -3.18055e-15 7.95139e-16 0 -3.18055e-15 1.01153 18.8684 -1.69281 3.53753e-16 0.528321 -0 -0.15395 30.1015 -7.44537 -20.8691 -34.3668 -18.273 102.82 86.2633 -96.3899 1.14799 -21.9045 11.7023 0.439441 3.374 0.0708787 -178.531 -1.41374 -167.997 -179.276 -0.600381 -160.082 179.447 -1.12556 -169.995 -178 -5 -180 179.002 0.985149 179.879 9.5853 -37.9384 33.1723 90.9926 71.1182 -70.7638 -11.077 -8.58825 -5.57187 17.534 28.3747 -2.64106 0.553385 1.12556 10.0051 -0.724387 0.600381 19.9179 -1.46875 1.41374 12.0028 -2 5 -3.1661e-15 0.99792 -0.985149 -0.120973 0 0 -0 
